<?xml version="1.0" standalone="no"?>
<!DOCTYPE svg PUBLIC "-//W3C//DTD SVG 20010904//EN"
 "http://www.w3.org/TR/2001/REC-SVG-20010904/DTD/svg10.dtd">
<svg version="1.0" xmlns="http://www.w3.org/2000/svg"
 width="32pt" height="32pt" viewBox="0 0 32 32"
 preserveAspectRatio="xMidYMid meet">
<metadata>
Created by potrace 1.15, written by Peter Selinger 2001-2017
</metadata>
<g transform="translate(0.000000,1226.000000) scale(0.100000,-0.100000)"
fill="#000000" stroke="none">
<path d="M1021 12236 c-10 -12 -3 -29 40 -93 369 -550 1727 -2070 2525 -2825
129 -122 234 -226 234 -232 0 -21 -66 -86 -102 -101 l-36 -14 -134 116 c-271
237 -492 447 -863 818 -358 357 -572 580 -1100 1145 -308 330 -532 566 -733
774 -157 164 -174 178 -188 164 -15 -14 -9 -26 57 -124 255 -382 587 -818 913
-1203 278 -328 523 -597 1081 -1186 555 -585 695 -737 695 -755 0 -26 -58
-100 -87 -111 -26 -10 -36 0 -246 208 -598 596 -1047 1083 -2436 2641 -236
264 -308 339 -318 330 -7 -6 -13 -15 -13 -20 0 -18 255 -387 504 -728 430
-591 888 -1159 1809 -2244 340 -401 355 -420 345 -447 -5 -15 -22 -40 -36 -55
-54 -54 -53 -55 -226 110 -493 468 -1101 1165 -1882 2156 -185 236 -767 980
-780 998 -1 2 -11 -1 -22 -7 -19 -10 -17 -17 46 -138 726 -1414 2356 -3428
3061 -3783 168 -84 490 -128 998 -134 l251 -4 104 -83 c917 -738 2002 -1803
3288 -3229 618 -686 1251 -1416 2070 -2390 1206 -1434 1434 -1696 1515 -1738
163 -84 531 -61 808 50 304 122 459 300 575 658 47 146 56 197 57 305 0 146
-8 158 -203 302 -607 450 -1856 1418 -2692 2087 -2073 1658 -3663 3038 -4826
4188 l-310 308 -17 112 c-56 372 -181 663 -396 920 -52 63 -3292 3260 -3310
3266 -4 1 -14 -4 -20 -12z"/>
</g>
</svg>
